{"title":"Geordie Shore S10E06 1080P WEB-DL","uid":11915250,"size":1563714865,"categoryP":"video","categoryS":"hd___tv_shows","magnet":"?xt=urn:btih:361671e49ef260618c17d8fd854e05706a89c828&amp;dn=+Geordie+Shore+S10E06+1080P+WEB-DL&amp;tr=udp%3A%2F%2Ftracker.openbittorrent.com%3A80&amp;tr=udp%3A%2F%2Fopen.demonii.com%3A1337&amp;tr=udp%3A%2F%2Ftracker.coppersurfer.tk%3A6969&amp;tr=udp%3A%2F%2Fexodus.desync.com%3A6969","seeders":16,"leechers":1,"uploader":"jmanwf","files":2,"time":1431524924,"description":"Video\nID : 2\nFormat : AVC\nFormat/Info : Advanced Video Codec\nFormat profile : High@L4\nFormat settings, CABAC : Yes\nFormat settings, ReFrames : 4 frames\nCodec ID : avc1\nCodec ID/Info : Advanced Video Coding\nDuration : 40mn 57s\nBit rate : 4 959 Kbps\nWidth : 1 920 pixels\nHeight : 1 080 pixels\nDisplay aspect ratio : 16:9\nFrame rate mode : Constant\nFrame rate : 25.000 fps\nColor space : YUV\nChroma subsampling : 4:2:0\nBit depth : 8 bits\nScan type : Progressive\nBits/(Pixel*Frame) : 0.096\nStream size : 1.42 GiB (97%)\nLanguage : English\nEncoded date : UTC 2015-05-13 05:06:58\nTagged date : UTC 2015-05-13 05:08:42\nColor range : Limited\nColor primaries : BT.709\nTransfer characteristics : BT.709\nMatrix coefficients : BT.709\n\nAudio\nID : 1\nFormat : AAC\nFormat/Info : Advanced Audio Codec\nFormat profile : LC\nCodec ID : 40\nDuration : 40mn 57s\nDuration_LastFrame : -5ms\nBit rate mode : Variable\nBit rate : 126 Kbps\nMaximum bit rate : 173 Kbps\nChannel(s) : 2 channels\nChannel positions : Front: L R\nSampling rate : 48.0 KHz\nCompression mode : Lossy\nStream size : 36.9 MiB (2%)\nLanguage : English\nEncoded date : UTC 2015-05-13 05:05:35\nTagged date : UTC 2015-05-13 05:06:58\n\nText\nID : 3-CC1\nFormat : EIA-608\nMuxing mode : Final Cut\nCodec ID : c608\nDuration : 40mn 56s\nBit rate mode : Constant\nStream size : 0.00 Byte (0%)\nLanguage : English\nEncoded date : UTC 2015-05-13 05:08:43\nTagged date : UTC 2015-05-13 05:08:45\n\n\n\n &lt;a href=&quot;\nhttps://itunes.apple.com/gb/tv-season/geordie-shore-season-10/id979550691&quot; rel=&quot;nofollow&quot; target=&quot;_NEW&quot;&gt;\nhttps://itunes.apple.com/gb/tv-season/geordie-shore-season-10/id979550691&lt;/a&gt;","torrent":{"xt":"urn:btih:361671e49ef260618c17d8fd854e05706a89c828","amp;dn":"+Geordie+Shore+S10E06+1080P+WEB-DL","amp;tr":["udp%3A%2F%2Ftracker.openbittorrent.com%3A80","udp%3A%2F%2Fopen.demonii.com%3A1337","udp%3A%2F%2Ftracker.coppersurfer.tk%3A6969","udp%3A%2F%2Fexodus.desync.com%3A6969"],"infoHash":"361671e49ef260618c17d8fd854e05706a89c828","infoHashBuffer":{"type":"Buffer","data":[54,22,113,228,158,242,96,97,140,23,216,253,133,78,5,112,106,137,200,40]},"announce":[],"urlList":[]}}